<svg width="306" height="299" viewBox="0 0 306 299" fill="none" xmlns="http://www.w3.org/2000/svg">
<mask id="path-1-inside-1_2038_133" fill="white">
<path d="M40.1851 195.579C39.8904 195.796 39.5077 195.792 39.2169 195.627C39.1038 195.562 38.9999 195.482 38.9306 195.378C37.8696 193.898 36.8594 192.403 35.8999 190.895C35.6317 190.464 35.7529 189.913 36.1835 189.645C36.6141 189.377 37.1654 189.498 37.4336 189.928C38.3539 191.393 39.3479 192.878 40.3857 194.324C40.6723 194.723 40.5835 195.292 40.1851 195.579ZM106.936 71.882C107.404 71.699 107.624 71.1614 107.432 70.7099C107.249 70.2422 106.711 70.0219 106.26 70.214C104.575 70.8811 102.924 71.5665 101.304 72.2703C100.853 72.4625 100.632 73.0001 100.824 73.4516C100.905 73.6475 101.039 73.7878 101.201 73.8798C101.443 74.0177 101.734 74.0333 102.006 73.9313C103.616 73.2437 105.268 72.5582 106.927 71.8982L106.936 71.882ZM34.774 185.357C33.9342 183.788 33.1544 182.19 32.4483 180.612C32.24 180.151 31.7094 179.956 31.2578 180.148C30.7971 180.356 30.6021 180.887 30.7943 181.339C31.5142 182.967 32.3172 184.6 33.1801 186.203C33.2634 186.358 33.3904 186.473 33.5358 186.556C33.7943 186.703 34.1263 186.72 34.4096 186.561C34.8472 186.318 35.026 185.778 34.7832 185.341L34.774 185.357ZM87.906 79.4671C87.6885 79.0225 87.1233 78.8507 86.6949 79.0774C85.0687 79.9057 83.484 80.7363 81.9317 81.5852C81.4941 81.8281 81.3314 82.3771 81.5742 82.8147C81.6575 82.969 81.7845 83.0841 81.9299 83.1668C82.1884 83.3139 82.5204 83.3317 82.8037 83.1721C84.3469 82.3393 85.9154 81.4996 87.5163 80.6782C87.9609 80.4607 88.1489 79.9047 87.906 79.4671ZM28.9697 170.677C28.8374 170.195 28.3458 169.894 27.855 170.042C27.3734 170.175 27.0722 170.666 27.2207 171.157C27.6688 172.888 28.1999 174.623 28.8071 176.337C28.8789 176.549 29.036 176.724 29.2137 176.825C29.4399 176.954 29.7051 176.976 29.9677 176.89C30.4424 176.733 30.6789 176.204 30.5213 175.73C29.928 174.066 29.42 172.366 28.9858 170.686L28.9697 170.677ZM126.48 62.9426C124.751 63.4991 123.065 64.0578 121.378 64.6165C120.904 64.7741 120.651 65.2933 120.809 65.768C120.88 65.9799 121.037 66.1549 121.215 66.256C121.425 66.3755 121.707 66.4073 121.944 66.3284C123.614 65.7606 125.301 65.2019 127.004 64.6524C127.478 64.4947 127.747 63.9847 127.59 63.5101C127.432 63.0354 126.922 62.7666 126.447 62.9243L126.48 62.9426ZM54.6461 209.967C53.3113 208.779 52.0203 207.553 50.7708 206.329C50.4243 205.96 49.8318 205.987 49.4889 206.326C49.1368 206.682 49.1471 207.265 49.512 207.601C50.7685 208.851 52.101 210.08 53.4427 211.292C53.4912 211.32 53.5466 211.373 53.5951 211.4C53.9505 211.602 54.4368 211.537 54.7198 211.228C55.0558 210.863 55.0201 210.286 54.6553 209.95L54.6461 209.967ZM117.465 66.9452C117.299 66.4867 116.779 66.2341 116.305 66.3917C114.607 67.0081 112.925 67.6336 111.268 68.2522C110.801 68.4352 110.573 68.9474 110.731 69.4221C110.812 69.6179 110.953 69.7836 111.131 69.8847C111.357 70.0134 111.638 70.0452 111.91 69.9433C113.55 69.3155 115.223 68.7061 116.921 68.0898C117.38 67.9229 117.632 67.4037 117.475 66.9291L117.465 66.9452ZM148.193 57.6328C148.06 57.1512 147.569 56.8501 147.087 56.9824C145.331 57.4374 143.617 57.8947 141.902 58.352C141.42 58.4843 141.135 58.9851 141.268 59.4667C141.321 59.711 141.494 59.8952 141.688 60.0055C141.882 60.1158 142.138 60.1545 142.366 60.0918C144.065 59.6254 145.779 59.1681 147.526 58.7291C148.008 58.5969 148.309 58.1052 148.176 57.6236L148.193 57.6328ZM47.0958 202.527C45.8853 201.196 44.7255 199.852 43.6234 198.519C43.3114 198.128 42.7396 198.08 42.3482 198.392C41.9568 198.704 41.9094 199.276 42.2214 199.667C43.3305 201.026 44.5134 202.404 45.7563 203.753C45.8186 203.832 45.8994 203.877 45.9802 203.923C46.3195 204.116 46.7459 204.081 47.0359 203.797C47.4042 203.451 47.4262 202.886 47.0958 202.527ZM132.133 63.0799C133.817 62.5627 135.518 62.0547 137.251 61.5651C137.732 61.4328 138.001 60.9228 137.885 60.4504C137.753 59.9688 137.243 59.7 136.77 59.8161C135.028 60.3219 133.312 60.8207 131.627 61.3379C131.153 61.4955 130.877 61.9802 131.025 62.471C131.088 62.6991 131.245 62.874 131.439 62.9844C131.649 63.1039 131.905 63.1426 132.142 63.0638L132.133 63.0799ZM34.5381 125.298C34.9743 125.547 35.5067 125.4 35.771 124.973C36.6351 123.455 37.5892 121.966 38.5756 120.496C38.8561 120.078 38.7445 119.522 38.3266 119.242C37.9158 118.987 37.3534 119.073 37.0729 119.491C36.052 120.984 35.0864 122.531 34.1878 124.073C33.9396 124.509 34.0766 125.057 34.5128 125.305L34.5381 125.298ZM31.1818 134.467C31.8014 132.852 32.5131 131.225 33.2895 129.635C33.5054 129.181 33.3177 128.646 32.8631 128.43C32.4085 128.214 31.874 128.402 31.6581 128.857C30.8633 130.479 30.1402 132.163 29.493 133.827C29.337 134.251 29.4947 134.726 29.8824 134.946C29.9147 134.965 29.9632 134.992 29.9955 135.011C30.4684 135.194 30.989 134.956 31.1634 134.499L31.1818 134.467ZM40.4287 116.375C40.4287 116.375 40.5095 116.421 40.5418 116.439C40.9295 116.66 41.4342 116.562 41.7033 116.202C42.7591 114.835 43.8909 113.447 45.0619 112.103C45.3817 111.729 45.3461 111.153 44.972 110.833C44.5979 110.513 44.0216 110.549 43.7018 110.923C42.5124 112.299 41.3552 113.694 40.2811 115.093C39.9683 115.492 40.0546 116.055 40.4379 116.359L40.4287 116.375ZM47.3673 108.24C47.3673 108.24 47.4782 108.346 47.5428 108.382C47.8982 108.585 48.3431 108.517 48.6331 108.233C49.832 106.99 51.1231 105.736 52.4281 104.533C52.7964 104.186 52.8184 103.621 52.4719 103.253C52.1254 102.885 51.5605 102.863 51.1923 103.209C49.8689 104.445 48.5686 105.715 47.3351 106.981C46.983 107.337 46.9933 107.92 47.3582 108.256L47.3673 108.24ZM91.4659 78.2848C91.7082 78.4227 92.0311 78.4567 92.3052 78.3133C93.8854 77.5657 95.491 76.8112 97.138 76.0589C97.5988 75.8506 97.7938 75.32 97.5854 74.8593C97.3771 74.3985 96.8465 74.2035 96.3858 74.4119C94.7225 75.155 93.117 75.9095 91.5183 76.6893C91.0738 76.9069 90.8788 77.4375 91.0871 77.8982C91.1612 78.0687 91.2952 78.2091 91.4567 78.301L91.4659 78.2848ZM27.2379 160.303C27.1978 159.809 26.7683 159.437 26.2588 159.467C25.7655 159.508 25.3928 159.937 25.4237 160.446C25.5607 162.235 25.7876 164.054 26.0836 165.826C26.1348 166.112 26.3059 166.338 26.532 166.466C26.7098 166.568 26.9242 166.604 27.134 166.574C27.6295 166.492 27.963 166.019 27.8722 165.54C27.5739 163.809 27.3609 162.041 27.2287 160.319L27.2379 160.303ZM63.5198 94.2482C63.6053 94.361 63.693 94.4324 63.8061 94.4967C64.113 94.6714 64.4888 94.6499 64.7743 94.4488C66.1858 93.4341 67.6387 92.4217 69.1331 91.4115C69.5476 91.1341 69.6527 90.5736 69.3753 90.1592C69.0978 89.7447 68.5374 89.6396 68.1229 89.917C66.6031 90.9342 65.1248 91.9536 63.7042 92.9845C63.3059 93.2711 63.217 93.8407 63.5036 94.239L63.5198 94.2482ZM29.4894 139.47C29.6315 138.995 29.3677 138.482 28.8834 138.356C28.4082 138.214 27.9107 138.487 27.7686 138.962C27.2507 140.699 26.8136 142.482 26.4617 144.228C26.3909 144.615 26.5784 145 26.9015 145.184C26.9823 145.23 27.063 145.276 27.1622 145.289C27.6396 145.39 28.1232 145.066 28.2238 144.589C28.5734 142.884 28.9991 141.159 29.4894 139.47ZM60.6832 96.3768C60.3713 95.9854 59.8086 95.9219 59.4264 96.2177C57.9921 97.3477 56.5994 98.4799 55.2481 99.6144C54.8729 99.9355 54.8255 100.507 55.1466 100.883C55.209 100.961 55.2968 101.032 55.3937 101.087C55.7168 101.271 56.1341 101.252 56.431 100.993C57.7569 99.8657 59.1244 98.7404 60.5495 97.6266C60.9408 97.3146 61.0044 96.752 60.7086 96.3698L60.6832 96.3768ZM27.4032 149.789C27.4553 149.284 27.1041 148.849 26.5991 148.797C26.0941 148.745 25.659 149.096 25.6069 149.601C25.4188 151.397 25.3045 153.214 25.2732 155.036C25.2715 155.377 25.4473 155.669 25.7381 155.835C25.8673 155.908 26.015 155.95 26.1648 155.949C26.6721 155.96 27.0679 155.565 27.0785 155.058C27.1145 153.303 27.2174 151.544 27.394 149.805L27.4032 149.789ZM78.5088 84.5563C78.2659 84.1187 77.7077 83.9722 77.2609 84.2312C75.6879 85.1539 74.1564 86.0789 72.6503 86.9969C72.2196 87.2652 72.0984 87.8164 72.3667 88.2471C72.443 88.376 72.5538 88.4819 72.6831 88.5554C72.9577 88.7117 73.3151 88.7226 73.6076 88.5468C75.0976 87.6196 76.6198 86.7108 78.1675 85.795C78.6051 85.5521 78.7516 84.9939 78.4834 84.5633L78.5088 84.5563ZM183.796 251.762C182.007 251.749 180.236 251.704 178.466 251.658C177.958 251.648 177.546 252.034 177.536 252.541C177.534 252.882 177.717 253.2 177.992 253.356C178.121 253.43 178.268 253.471 178.418 253.471C180.189 253.516 181.985 253.554 183.79 253.576C184.281 253.578 184.703 253.176 184.704 252.685C184.705 252.194 184.303 251.772 183.812 251.771L183.796 251.762ZM162.482 250.733C160.693 250.57 158.929 250.401 157.174 250.215C156.669 250.163 156.234 250.514 156.182 251.019C156.145 251.383 156.335 251.726 156.642 251.901C156.739 251.956 156.861 252.004 156.986 252.011C158.757 252.206 160.546 252.369 162.336 252.532C162.824 252.574 163.269 252.207 163.312 251.718C163.355 251.229 162.987 250.785 162.498 250.742L162.482 250.733ZM173.133 251.447C171.339 251.367 169.563 251.255 167.813 251.136C167.315 251.109 166.887 251.486 166.844 251.975C166.817 252.323 167.016 252.65 167.307 252.815C167.42 252.88 167.551 252.912 167.692 252.928C169.467 253.04 171.243 253.152 173.053 253.241C173.551 253.267 173.963 252.882 173.99 252.384C174.016 251.886 173.64 251.457 173.133 251.447ZM130.863 245.979C129.11 245.602 127.375 245.192 125.666 244.775C125.182 244.65 124.691 244.948 124.581 245.441C124.485 245.836 124.68 246.246 125.019 246.439C125.084 246.476 125.164 246.522 125.247 246.526C126.973 246.952 128.716 247.345 130.485 247.732C130.979 247.841 131.453 247.534 131.563 247.04C131.673 246.547 131.365 246.072 130.872 245.963L130.863 245.979ZM151.879 249.597C150.101 249.377 148.342 249.124 146.591 248.855C146.096 248.787 145.628 249.12 145.56 249.616C145.498 249.987 145.695 250.355 146.002 250.53C146.099 250.585 146.205 250.624 146.32 250.647C148.071 250.916 149.856 251.162 151.634 251.382C152.129 251.45 152.59 251.092 152.633 250.603C152.701 250.108 152.343 249.647 151.854 249.604L151.879 249.597ZM141.333 248.023C139.56 247.72 137.821 247.393 136.082 247.067C135.595 246.982 135.121 247.29 135.011 247.783C134.94 248.171 135.128 248.556 135.451 248.739C135.532 248.785 135.613 248.831 135.737 248.838C137.492 249.174 139.247 249.509 141.021 249.813C141.507 249.897 141.975 249.564 142.059 249.078C142.144 248.591 141.811 248.124 141.324 248.039L141.333 248.023ZM194.473 251.678C192.672 251.723 190.906 251.744 189.14 251.766C188.649 251.764 188.244 252.176 188.243 252.667C188.241 253.008 188.426 253.284 188.701 253.44C188.83 253.514 188.994 253.564 189.153 253.548C190.935 253.536 192.726 253.507 194.527 253.462C195.027 253.447 195.416 253.027 195.417 252.536C195.403 252.036 194.982 251.647 194.491 251.646L194.473 251.678ZM215.778 250.392C213.996 250.554 212.224 250.7 210.451 250.847C209.958 250.887 209.585 251.316 209.616 251.826C209.632 252.134 209.827 252.395 210.069 252.533C210.214 252.615 210.404 252.659 210.579 252.651C212.351 252.505 214.14 252.368 215.931 252.19C216.425 252.15 216.79 251.695 216.75 251.202C216.71 250.708 216.255 250.343 215.762 250.383L215.778 250.392ZM227.395 250.009C227.33 249.522 226.875 249.157 226.388 249.222C224.611 249.451 222.852 249.648 221.094 249.845C220.591 249.901 220.235 250.34 220.291 250.842C220.333 251.144 220.495 251.386 220.737 251.524C220.899 251.616 221.088 251.659 221.288 251.645C223.047 251.448 224.831 251.245 226.608 251.015C227.095 250.95 227.46 250.495 227.395 250.009ZM205.128 251.218C203.332 251.33 201.571 251.418 199.794 251.498C199.293 251.512 198.905 251.933 198.935 252.442C198.943 252.767 199.128 253.043 199.386 253.191C199.532 253.273 199.696 253.324 199.871 253.316C201.648 253.237 203.435 253.142 205.231 253.03C205.74 252.999 206.113 252.57 206.073 252.076C206.033 251.583 205.612 251.194 205.119 251.234L205.128 251.218ZM71.6678 222.711C70.1536 221.763 68.674 220.793 67.2128 219.791C66.7972 219.469 66.2396 219.622 65.9683 220.023C65.6877 220.441 65.7994 220.997 66.2011 221.268C67.6623 222.271 69.1742 223.259 70.7045 224.216L70.7368 224.234C71.1568 224.473 71.6799 224.343 71.9513 223.941C72.2156 223.514 72.0878 222.95 71.677 222.694L71.6678 222.711ZM178.855 51.8549C179.35 51.7733 179.667 51.2909 179.586 50.7953C179.495 50.3159 179.022 49.9825 178.526 50.0641C176.752 50.4016 175.002 50.7322 173.269 51.0719C172.781 51.1789 172.456 51.6359 172.554 52.1407C172.615 52.4103 172.769 52.6267 172.996 52.7554C173.173 52.8566 173.404 52.9022 173.623 52.8557C175.356 52.516 177.105 52.1854 178.88 51.8479L178.855 51.8549ZM168.001 52.1374C166.233 52.5003 164.482 52.8723 162.762 53.2628C162.274 53.3697 161.956 53.8521 162.063 54.3407C162.124 54.6104 162.288 54.8106 162.498 54.9301C162.692 55.0405 162.906 55.077 163.141 55.0396C164.861 54.6492 166.603 54.2933 168.371 53.9304C168.859 53.8235 169.167 53.3572 169.069 52.8525C168.963 52.3639 168.48 52.0466 167.992 52.1536L168.001 52.1374ZM120.502 243.441C118.779 242.974 117.065 242.49 115.376 242C114.901 241.858 114.403 242.131 114.261 242.606C114.14 243.007 114.316 243.45 114.671 243.652C114.736 243.689 114.784 243.716 114.858 243.737C116.563 244.236 118.293 244.729 120.032 245.205C120.517 245.331 121.014 245.058 121.14 244.574C121.266 244.09 120.977 243.583 120.509 243.466L120.502 243.441ZM80.8718 228.033C79.6579 227.386 78.4694 226.731 77.3062 226.069L76.2238 225.453C75.8567 225.158 75.2392 225.342 74.991 225.778C74.7428 226.214 74.8798 226.762 75.316 227.011L76.4145 227.636C77.5939 228.307 78.7894 228.987 80.0286 229.628C80.4648 229.876 81.0155 229.698 81.2475 229.252C81.4957 228.816 81.3242 228.291 80.8718 228.033ZM62.9005 216.695C61.4599 215.619 60.07 214.529 58.7054 213.431C58.3222 213.128 57.7459 213.163 57.433 213.563C57.1041 213.953 57.165 214.522 57.5645 214.835C58.936 215.958 60.3582 217.066 61.8149 218.152C61.8473 218.17 61.8796 218.189 61.9119 218.207C62.2996 218.428 62.8043 218.33 63.0826 217.954C63.3793 217.545 63.293 216.983 62.9005 216.695ZM157.538 54.4389C155.784 54.8524 154.03 55.266 152.318 55.6818C151.837 55.8141 151.545 56.2895 151.652 56.7781C151.721 57.0316 151.869 57.2227 152.079 57.3422C152.273 57.4525 152.504 57.4982 152.732 57.4355C154.444 57.0197 156.182 56.597 157.926 56.1996C158.415 56.0926 158.716 55.601 158.609 55.1124C158.502 54.6238 158.01 54.3227 157.522 54.4297L157.538 54.4389ZM100.252 236.858C98.5884 236.211 96.9342 235.548 95.3052 234.878C94.8415 234.678 94.3139 234.891 94.1303 235.364C93.949 235.795 94.1228 236.279 94.5105 236.5C94.5428 236.518 94.5751 236.537 94.6074 236.555C96.2433 237.251 97.8975 237.914 99.6025 238.563C100.075 238.747 100.596 238.508 100.77 238.052C100.954 237.579 100.732 237.067 100.259 236.884L100.252 236.858ZM110.292 240.411C108.599 239.854 106.905 239.297 105.24 238.691C104.774 238.533 104.253 238.772 104.095 239.238C103.939 239.662 104.131 240.114 104.503 240.325C104.551 240.353 104.6 240.38 104.648 240.408C106.323 240.997 108.023 241.58 109.742 242.13C110.208 242.288 110.721 242.024 110.889 241.542C111.047 241.076 110.783 240.563 110.317 240.404L110.292 240.411ZM190.133 48.9479C190.051 48.4524 189.578 48.1189 189.098 48.2097C187.326 48.5057 185.553 48.8017 183.813 49.1161C183.318 49.1977 182.984 49.671 183.082 50.1757C183.133 50.4615 183.304 50.6871 183.531 50.8158C183.708 50.9169 183.923 50.9534 184.133 50.9231C185.873 50.6087 187.62 50.3196 189.392 50.0236C189.888 49.942 190.221 49.4688 190.13 48.9894L190.133 48.9479ZM90.409 232.733C88.7754 231.996 87.1763 231.236 85.5956 230.443C85.141 230.227 84.6065 230.415 84.3836 230.844C84.1769 231.283 84.3323 231.799 84.7362 232.029L84.7847 232.056C86.3746 232.833 88.006 233.611 89.6558 234.358C90.1104 234.574 90.6379 234.36 90.8538 233.906C91.0697 233.451 90.8475 232.94 90.4021 232.708L90.409 232.733Z"/>
</mask>
<path d="M40.1851 195.579C39.8904 195.796 39.5077 195.792 39.2169 195.627C39.1038 195.562 38.9999 195.482 38.9306 195.378C37.8696 193.898 36.8594 192.403 35.8999 190.895C35.6317 190.464 35.7529 189.913 36.1835 189.645C36.6141 189.377 37.1654 189.498 37.4336 189.928C38.3539 191.393 39.3479 192.878 40.3857 194.324C40.6723 194.723 40.5835 195.292 40.1851 195.579ZM106.936 71.882C107.404 71.699 107.624 71.1614 107.432 70.7099C107.249 70.2422 106.711 70.0219 106.26 70.214C104.575 70.8811 102.924 71.5665 101.304 72.2703C100.853 72.4625 100.632 73.0001 100.824 73.4516C100.905 73.6475 101.039 73.7878 101.201 73.8798C101.443 74.0177 101.734 74.0333 102.006 73.9313C103.616 73.2437 105.268 72.5582 106.927 71.8982L106.936 71.882ZM34.774 185.357C33.9342 183.788 33.1544 182.19 32.4483 180.612C32.24 180.151 31.7094 179.956 31.2578 180.148C30.7971 180.356 30.6021 180.887 30.7943 181.339C31.5142 182.967 32.3172 184.6 33.1801 186.203C33.2634 186.358 33.3904 186.473 33.5358 186.556C33.7943 186.703 34.1263 186.72 34.4096 186.561C34.8472 186.318 35.026 185.778 34.7832 185.341L34.774 185.357ZM87.906 79.4671C87.6885 79.0225 87.1233 78.8507 86.6949 79.0774C85.0687 79.9057 83.484 80.7363 81.9317 81.5852C81.4941 81.8281 81.3314 82.3771 81.5742 82.8147C81.6575 82.969 81.7845 83.0841 81.9299 83.1668C82.1884 83.3139 82.5204 83.3317 82.8037 83.1721C84.3469 82.3393 85.9154 81.4996 87.5163 80.6782C87.9609 80.4607 88.1489 79.9047 87.906 79.4671ZM28.9697 170.677C28.8374 170.195 28.3458 169.894 27.855 170.042C27.3734 170.175 27.0722 170.666 27.2207 171.157C27.6688 172.888 28.1999 174.623 28.8071 176.337C28.8789 176.549 29.036 176.724 29.2137 176.825C29.4399 176.954 29.7051 176.976 29.9677 176.89C30.4424 176.733 30.6789 176.204 30.5213 175.73C29.928 174.066 29.42 172.366 28.9858 170.686L28.9697 170.677ZM126.48 62.9426C124.751 63.4991 123.065 64.0578 121.378 64.6165C120.904 64.7741 120.651 65.2933 120.809 65.768C120.88 65.9799 121.037 66.1549 121.215 66.256C121.425 66.3755 121.707 66.4073 121.944 66.3284C123.614 65.7606 125.301 65.2019 127.004 64.6524C127.478 64.4947 127.747 63.9847 127.59 63.5101C127.432 63.0354 126.922 62.7666 126.447 62.9243L126.48 62.9426ZM54.6461 209.967C53.3113 208.779 52.0203 207.553 50.7708 206.329C50.4243 205.96 49.8318 205.987 49.4889 206.326C49.1368 206.682 49.1471 207.265 49.512 207.601C50.7685 208.851 52.101 210.08 53.4427 211.292C53.4912 211.32 53.5466 211.373 53.5951 211.4C53.9505 211.602 54.4368 211.537 54.7198 211.228C55.0558 210.863 55.0201 210.286 54.6553 209.95L54.6461 209.967ZM117.465 66.9452C117.299 66.4867 116.779 66.2341 116.305 66.3917C114.607 67.0081 112.925 67.6336 111.268 68.2522C110.801 68.4352 110.573 68.9474 110.731 69.4221C110.812 69.6179 110.953 69.7836 111.131 69.8847C111.357 70.0134 111.638 70.0452 111.91 69.9433C113.55 69.3155 115.223 68.7061 116.921 68.0898C117.38 67.9229 117.632 67.4037 117.475 66.9291L117.465 66.9452ZM148.193 57.6328C148.06 57.1512 147.569 56.8501 147.087 56.9824C145.331 57.4374 143.617 57.8947 141.902 58.352C141.42 58.4843 141.135 58.9851 141.268 59.4667C141.321 59.711 141.494 59.8952 141.688 60.0055C141.882 60.1158 142.138 60.1545 142.366 60.0918C144.065 59.6254 145.779 59.1681 147.526 58.7291C148.008 58.5969 148.309 58.1052 148.176 57.6236L148.193 57.6328ZM47.0958 202.527C45.8853 201.196 44.7255 199.852 43.6234 198.519C43.3114 198.128 42.7396 198.08 42.3482 198.392C41.9568 198.704 41.9094 199.276 42.2214 199.667C43.3305 201.026 44.5134 202.404 45.7563 203.753C45.8186 203.832 45.8994 203.877 45.9802 203.923C46.3195 204.116 46.7459 204.081 47.0359 203.797C47.4042 203.451 47.4262 202.886 47.0958 202.527ZM132.133 63.0799C133.817 62.5627 135.518 62.0547 137.251 61.5651C137.732 61.4328 138.001 60.9228 137.885 60.4504C137.753 59.9688 137.243 59.7 136.77 59.8161C135.028 60.3219 133.312 60.8207 131.627 61.3379C131.153 61.4955 130.877 61.9802 131.025 62.471C131.088 62.6991 131.245 62.874 131.439 62.9844C131.649 63.1039 131.905 63.1426 132.142 63.0638L132.133 63.0799ZM34.5381 125.298C34.9743 125.547 35.5067 125.4 35.771 124.973C36.6351 123.455 37.5892 121.966 38.5756 120.496C38.8561 120.078 38.7445 119.522 38.3266 119.242C37.9158 118.987 37.3534 119.073 37.0729 119.491C36.052 120.984 35.0864 122.531 34.1878 124.073C33.9396 124.509 34.0766 125.057 34.5128 125.305L34.5381 125.298ZM31.1818 134.467C31.8014 132.852 32.5131 131.225 33.2895 129.635C33.5054 129.181 33.3177 128.646 32.8631 128.43C32.4085 128.214 31.874 128.402 31.6581 128.857C30.8633 130.479 30.1402 132.163 29.493 133.827C29.337 134.251 29.4947 134.726 29.8824 134.946C29.9147 134.965 29.9632 134.992 29.9955 135.011C30.4684 135.194 30.989 134.956 31.1634 134.499L31.1818 134.467ZM40.4287 116.375C40.4287 116.375 40.5095 116.421 40.5418 116.439C40.9295 116.66 41.4342 116.562 41.7033 116.202C42.7591 114.835 43.8909 113.447 45.0619 112.103C45.3817 111.729 45.3461 111.153 44.972 110.833C44.5979 110.513 44.0216 110.549 43.7018 110.923C42.5124 112.299 41.3552 113.694 40.2811 115.093C39.9683 115.492 40.0546 116.055 40.4379 116.359L40.4287 116.375ZM47.3673 108.24C47.3673 108.24 47.4782 108.346 47.5428 108.382C47.8982 108.585 48.3431 108.517 48.6331 108.233C49.832 106.99 51.1231 105.736 52.4281 104.533C52.7964 104.186 52.8184 103.621 52.4719 103.253C52.1254 102.885 51.5605 102.863 51.1923 103.209C49.8689 104.445 48.5686 105.715 47.3351 106.981C46.983 107.337 46.9933 107.92 47.3582 108.256L47.3673 108.24ZM91.4659 78.2848C91.7082 78.4227 92.0311 78.4567 92.3052 78.3133C93.8854 77.5657 95.491 76.8112 97.138 76.0589C97.5988 75.8506 97.7938 75.32 97.5854 74.8593C97.3771 74.3985 96.8465 74.2035 96.3858 74.4119C94.7225 75.155 93.117 75.9095 91.5183 76.6893C91.0738 76.9069 90.8788 77.4375 91.0871 77.8982C91.1612 78.0687 91.2952 78.2091 91.4567 78.301L91.4659 78.2848ZM27.2379 160.303C27.1978 159.809 26.7683 159.437 26.2588 159.467C25.7655 159.508 25.3928 159.937 25.4237 160.446C25.5607 162.235 25.7876 164.054 26.0836 165.826C26.1348 166.112 26.3059 166.338 26.532 166.466C26.7098 166.568 26.9242 166.604 27.134 166.574C27.6295 166.492 27.963 166.019 27.8722 165.54C27.5739 163.809 27.3609 162.041 27.2287 160.319L27.2379 160.303ZM63.5198 94.2482C63.6053 94.361 63.693 94.4324 63.8061 94.4967C64.113 94.6714 64.4888 94.6499 64.7743 94.4488C66.1858 93.4341 67.6387 92.4217 69.1331 91.4115C69.5476 91.1341 69.6527 90.5736 69.3753 90.1592C69.0978 89.7447 68.5374 89.6396 68.1229 89.917C66.6031 90.9342 65.1248 91.9536 63.7042 92.9845C63.3059 93.2711 63.217 93.8407 63.5036 94.239L63.5198 94.2482ZM29.4894 139.47C29.6315 138.995 29.3677 138.482 28.8834 138.356C28.4082 138.214 27.9107 138.487 27.7686 138.962C27.2507 140.699 26.8136 142.482 26.4617 144.228C26.3909 144.615 26.5784 145 26.9015 145.184C26.9823 145.23 27.063 145.276 27.1622 145.289C27.6396 145.39 28.1232 145.066 28.2238 144.589C28.5734 142.884 28.9991 141.159 29.4894 139.47ZM60.6832 96.3768C60.3713 95.9854 59.8086 95.9219 59.4264 96.2177C57.9921 97.3477 56.5994 98.4799 55.2481 99.6144C54.8729 99.9355 54.8255 100.507 55.1466 100.883C55.209 100.961 55.2968 101.032 55.3937 101.087C55.7168 101.271 56.1341 101.252 56.431 100.993C57.7569 99.8657 59.1244 98.7404 60.5495 97.6266C60.9408 97.3146 61.0044 96.752 60.7086 96.3698L60.6832 96.3768ZM27.4032 149.789C27.4553 149.284 27.1041 148.849 26.5991 148.797C26.0941 148.745 25.659 149.096 25.6069 149.601C25.4188 151.397 25.3045 153.214 25.2732 155.036C25.2715 155.377 25.4473 155.669 25.7381 155.835C25.8673 155.908 26.015 155.95 26.1648 155.949C26.6721 155.96 27.0679 155.565 27.0785 155.058C27.1145 153.303 27.2174 151.544 27.394 149.805L27.4032 149.789ZM78.5088 84.5563C78.2659 84.1187 77.7077 83.9722 77.2609 84.2312C75.6879 85.1539 74.1564 86.0789 72.6503 86.9969C72.2196 87.2652 72.0984 87.8164 72.3667 88.2471C72.443 88.376 72.5538 88.4819 72.6831 88.5554C72.9577 88.7117 73.3151 88.7226 73.6076 88.5468C75.0976 87.6196 76.6198 86.7108 78.1675 85.795C78.6051 85.5521 78.7516 84.9939 78.4834 84.5633L78.5088 84.5563ZM183.796 251.762C182.007 251.749 180.236 251.704 178.466 251.658C177.958 251.648 177.546 252.034 177.536 252.541C177.534 252.882 177.717 253.2 177.992 253.356C178.121 253.43 178.268 253.471 178.418 253.471C180.189 253.516 181.985 253.554 183.79 253.576C184.281 253.578 184.703 253.176 184.704 252.685C184.705 252.194 184.303 251.772 183.812 251.771L183.796 251.762ZM162.482 250.733C160.693 250.57 158.929 250.401 157.174 250.215C156.669 250.163 156.234 250.514 156.182 251.019C156.145 251.383 156.335 251.726 156.642 251.901C156.739 251.956 156.861 252.004 156.986 252.011C158.757 252.206 160.546 252.369 162.336 252.532C162.824 252.574 163.269 252.207 163.312 251.718C163.355 251.229 162.987 250.785 162.498 250.742L162.482 250.733ZM173.133 251.447C171.339 251.367 169.563 251.255 167.813 251.136C167.315 251.109 166.887 251.486 166.844 251.975C166.817 252.323 167.016 252.65 167.307 252.815C167.42 252.88 167.551 252.912 167.692 252.928C169.467 253.04 171.243 253.152 173.053 253.241C173.551 253.267 173.963 252.882 173.99 252.384C174.016 251.886 173.64 251.457 173.133 251.447ZM130.863 245.979C129.11 245.602 127.375 245.192 125.666 244.775C125.182 244.65 124.691 244.948 124.581 245.441C124.485 245.836 124.68 246.246 125.019 246.439C125.084 246.476 125.164 246.522 125.247 246.526C126.973 246.952 128.716 247.345 130.485 247.732C130.979 247.841 131.453 247.534 131.563 247.04C131.673 246.547 131.365 246.072 130.872 245.963L130.863 245.979ZM151.879 249.597C150.101 249.377 148.342 249.124 146.591 248.855C146.096 248.787 145.628 249.12 145.56 249.616C145.498 249.987 145.695 250.355 146.002 250.53C146.099 250.585 146.205 250.624 146.32 250.647C148.071 250.916 149.856 251.162 151.634 251.382C152.129 251.45 152.59 251.092 152.633 250.603C152.701 250.108 152.343 249.647 151.854 249.604L151.879 249.597ZM141.333 248.023C139.56 247.72 137.821 247.393 136.082 247.067C135.595 246.982 135.121 247.29 135.011 247.783C134.94 248.171 135.128 248.556 135.451 248.739C135.532 248.785 135.613 248.831 135.737 248.838C137.492 249.174 139.247 249.509 141.021 249.813C141.507 249.897 141.975 249.564 142.059 249.078C142.144 248.591 141.811 248.124 141.324 248.039L141.333 248.023ZM194.473 251.678C192.672 251.723 190.906 251.744 189.14 251.766C188.649 251.764 188.244 252.176 188.243 252.667C188.241 253.008 188.426 253.284 188.701 253.44C188.83 253.514 188.994 253.564 189.153 253.548C190.935 253.536 192.726 253.507 194.527 253.462C195.027 253.447 195.416 253.027 195.417 252.536C195.403 252.036 194.982 251.647 194.491 251.646L194.473 251.678ZM215.778 250.392C213.996 250.554 212.224 250.7 210.451 250.847C209.958 250.887 209.585 251.316 209.616 251.826C209.632 252.134 209.827 252.395 210.069 252.533C210.214 252.615 210.404 252.659 210.579 252.651C212.351 252.505 214.14 252.368 215.931 252.19C216.425 252.15 216.79 251.695 216.75 251.202C216.71 250.708 216.255 250.343 215.762 250.383L215.778 250.392ZM227.395 250.009C227.33 249.522 226.875 249.157 226.388 249.222C224.611 249.451 222.852 249.648 221.094 249.845C220.591 249.901 220.235 250.34 220.291 250.842C220.333 251.144 220.495 251.386 220.737 251.524C220.899 251.616 221.088 251.659 221.288 251.645C223.047 251.448 224.831 251.245 226.608 251.015C227.095 250.95 227.46 250.495 227.395 250.009ZM205.128 251.218C203.332 251.33 201.571 251.418 199.794 251.498C199.293 251.512 198.905 251.933 198.935 252.442C198.943 252.767 199.128 253.043 199.386 253.191C199.532 253.273 199.696 253.324 199.871 253.316C201.648 253.237 203.435 253.142 205.231 253.03C205.74 252.999 206.113 252.57 206.073 252.076C206.033 251.583 205.612 251.194 205.119 251.234L205.128 251.218ZM71.6678 222.711C70.1536 221.763 68.674 220.793 67.2128 219.791C66.7972 219.469 66.2396 219.622 65.9683 220.023C65.6877 220.441 65.7994 220.997 66.2011 221.268C67.6623 222.271 69.1742 223.259 70.7045 224.216L70.7368 224.234C71.1568 224.473 71.6799 224.343 71.9513 223.941C72.2156 223.514 72.0878 222.95 71.677 222.694L71.6678 222.711ZM178.855 51.8549C179.35 51.7733 179.667 51.2909 179.586 50.7953C179.495 50.3159 179.022 49.9825 178.526 50.0641C176.752 50.4016 175.002 50.7322 173.269 51.0719C172.781 51.1789 172.456 51.6359 172.554 52.1407C172.615 52.4103 172.769 52.6267 172.996 52.7554C173.173 52.8566 173.404 52.9022 173.623 52.8557C175.356 52.516 177.105 52.1854 178.88 51.8479L178.855 51.8549ZM168.001 52.1374C166.233 52.5003 164.482 52.8723 162.762 53.2628C162.274 53.3697 161.956 53.8521 162.063 54.3407C162.124 54.6104 162.288 54.8106 162.498 54.9301C162.692 55.0405 162.906 55.077 163.141 55.0396C164.861 54.6492 166.603 54.2933 168.371 53.9304C168.859 53.8235 169.167 53.3572 169.069 52.8525C168.963 52.3639 168.48 52.0466 167.992 52.1536L168.001 52.1374ZM120.502 243.441C118.779 242.974 117.065 242.49 115.376 242C114.901 241.858 114.403 242.131 114.261 242.606C114.14 243.007 114.316 243.45 114.671 243.652C114.736 243.689 114.784 243.716 114.858 243.737C116.563 244.236 118.293 244.729 120.032 245.205C120.517 245.331 121.014 245.058 121.14 244.574C121.266 244.09 120.977 243.583 120.509 243.466L120.502 243.441ZM80.8718 228.033C79.6579 227.386 78.4694 226.731 77.3062 226.069L76.2238 225.453C75.8567 225.158 75.2392 225.342 74.991 225.778C74.7428 226.214 74.8798 226.762 75.316 227.011L76.4145 227.636C77.5939 228.307 78.7894 228.987 80.0286 229.628C80.4648 229.876 81.0155 229.698 81.2475 229.252C81.4957 228.816 81.3242 228.291 80.8718 228.033ZM62.9005 216.695C61.4599 215.619 60.07 214.529 58.7054 213.431C58.3222 213.128 57.7459 213.163 57.433 213.563C57.1041 213.953 57.165 214.522 57.5645 214.835C58.936 215.958 60.3582 217.066 61.8149 218.152C61.8473 218.17 61.8796 218.189 61.9119 218.207C62.2996 218.428 62.8043 218.33 63.0826 217.954C63.3793 217.545 63.293 216.983 62.9005 216.695ZM157.538 54.4389C155.784 54.8524 154.03 55.266 152.318 55.6818C151.837 55.8141 151.545 56.2895 151.652 56.7781C151.721 57.0316 151.869 57.2227 152.079 57.3422C152.273 57.4525 152.504 57.4982 152.732 57.4355C154.444 57.0197 156.182 56.597 157.926 56.1996C158.415 56.0926 158.716 55.601 158.609 55.1124C158.502 54.6238 158.01 54.3227 157.522 54.4297L157.538 54.4389ZM100.252 236.858C98.5884 236.211 96.9342 235.548 95.3052 234.878C94.8415 234.678 94.3139 234.891 94.1303 235.364C93.949 235.795 94.1228 236.279 94.5105 236.5C94.5428 236.518 94.5751 236.537 94.6074 236.555C96.2433 237.251 97.8975 237.914 99.6025 238.563C100.075 238.747 100.596 238.508 100.77 238.052C100.954 237.579 100.732 237.067 100.259 236.884L100.252 236.858ZM110.292 240.411C108.599 239.854 106.905 239.297 105.24 238.691C104.774 238.533 104.253 238.772 104.095 239.238C103.939 239.662 104.131 240.114 104.503 240.325C104.551 240.353 104.6 240.38 104.648 240.408C106.323 240.997 108.023 241.58 109.742 242.13C110.208 242.288 110.721 242.024 110.889 241.542C111.047 241.076 110.783 240.563 110.317 240.404L110.292 240.411ZM190.133 48.9479C190.051 48.4524 189.578 48.1189 189.098 48.2097C187.326 48.5057 185.553 48.8017 183.813 49.1161C183.318 49.1977 182.984 49.671 183.082 50.1757C183.133 50.4615 183.304 50.6871 183.531 50.8158C183.708 50.9169 183.923 50.9534 184.133 50.9231C185.873 50.6087 187.62 50.3196 189.392 50.0236C189.888 49.942 190.221 49.4688 190.13 48.9894L190.133 48.9479ZM90.409 232.733C88.7754 231.996 87.1763 231.236 85.5956 230.443C85.141 230.227 84.6065 230.415 84.3836 230.844C84.1769 231.283 84.3323 231.799 84.7362 232.029L84.7847 232.056C86.3746 232.833 88.006 233.611 89.6558 234.358C90.1104 234.574 90.6379 234.36 90.8538 233.906C91.0697 233.451 90.8475 232.94 90.4021 232.708L90.409 232.733Z" fill="#872BFF" stroke="#645873" stroke-width="3.71753" mask="url(#path-1-inside-1_2038_133)"/>
<path d="M222.106 50.207L222.139 50.198C221.324 51.4444 220.466 52.7674 219.609 54.0888L218.523 55.7628L218.516 55.7639L218.288 56.1108C217.173 57.8077 216.147 59.3654 215.389 60.5053C215.01 61.0758 214.7 61.5383 214.479 61.8603C214.411 61.9595 214.353 62.0434 214.305 62.1118C214.288 62.1154 214.27 62.1191 214.251 62.123C214.247 62.1238 214.243 62.1246 214.239 62.1254L216.449 56.7368L216.454 56.7395L216.852 55.7567L217.032 55.3149L217.277 54.7179L217.274 54.7182L217.438 54.3147L218.028 52.8613L218.01 52.8634L218.122 52.5859L218.171 52.4646L218.185 52.3344L218.287 51.3659L218.364 50.6289L218.553 49.0277L218.69 47.8689L218.664 47.8717L218.787 46.8526L218.931 45.6447L217.728 45.8226C216.812 45.9579 216.057 46.0663 215.342 46.169C213.978 46.3649 212.76 46.5396 210.86 46.8392C208.587 47.0454 206.441 47.1768 204.576 47.2577L204.104 47.2782L203.843 47.6716C203.246 48.5688 202.311 50.0047 201.527 51.2129C201.194 51.7272 200.887 52.2011 200.645 52.576L200.987 48.2987L201.038 47.6703L201.074 47.654L201.045 47.5829L201.062 47.3641L200.95 47.3562L200.726 46.8164L199.113 42.9419C199.432 43.2001 199.826 43.5197 200.255 43.8671C201.324 44.7319 202.614 45.7719 203.49 46.4634L203.865 46.7598L204.324 46.6269C206.158 46.0965 208.362 45.5846 210.674 45.2178L210.678 45.2171C212.09 44.9858 213.109 44.8083 214.387 44.5857C215.224 44.4399 216.172 44.2748 217.414 44.0626L218.608 43.8586L218.102 42.7583L217.679 41.8371L217.7 41.8326L217.199 40.7636L216.708 39.7188L216.712 39.7181L216.226 38.655L215.816 37.7589L215.761 37.6372L215.673 37.5361L215.299 37.106L214.493 36.1442L213.5 34.9586L213.117 34.5014L213.106 34.5044L209.036 29.7047C209.044 29.7037 209.053 29.7026 209.061 29.7016C209.086 29.6987 209.11 29.696 209.132 29.6936C209.198 29.7434 209.28 29.8048 209.375 29.8778C209.685 30.1148 210.124 30.4576 210.661 30.8821C211.735 31.7303 213.191 32.8951 214.774 34.1698L215.091 34.4257L215.133 34.4195L216.72 35.7049C217.377 36.236 218.042 36.7733 218.693 37.2995C219.272 37.7677 219.841 38.2271 220.383 38.6655L220.703 38.9245L221.109 38.8615L222.587 38.6329L222.805 38.5992L222.908 39.2582L222.294 40.1602C223.659 41.2574 224.725 42.1198 225.231 42.5353L225.56 42.8052L225.979 42.7325C226.124 42.7075 226.302 42.6787 226.49 42.6484C226.737 42.6086 227.002 42.566 227.228 42.5255C229.535 42.1526 232.128 41.9484 234.15 41.961C234.913 41.9657 235.572 42.0013 236.093 42.0644C235.619 42.2834 235.007 42.5187 234.288 42.7571C232.367 43.3942 229.834 44.0039 227.528 44.3699L227.416 44.3877C227.415 44.3878 227.414 44.388 227.413 44.3881C227.323 44.4018 227.233 44.4154 227.143 44.429C226.799 44.4807 226.458 44.532 226.13 44.589L225.728 44.6586L225.507 45.001L225.443 45.0998C225.062 45.6914 224.358 46.7836 223.461 48.1471L222.106 50.207ZM224.749 49.5262L224.689 49.4924L225.088 49.43L225.095 49.472L224.749 49.5262ZM220.806 55.5161L220.743 55.4804L221.145 55.4184L221.152 55.4619L220.806 55.5161ZM214.484 62.0686C214.491 62.0659 214.495 62.0646 214.495 62.0647C214.495 62.0648 214.492 62.0662 214.484 62.0686ZM217.292 34.0442L217.338 33.9967L217.738 33.9341L217.745 33.9746L217.292 34.0442ZM222.95 38.5306L222.999 38.4799L223.399 38.4173L223.406 38.4593L222.95 38.5306ZM209.325 29.6791C209.325 29.6791 209.322 29.6792 209.318 29.679C209.323 29.679 209.325 29.6791 209.325 29.6791ZM237.128 42.3046C237.128 42.3047 237.123 42.3018 237.114 42.2958C237.125 42.3014 237.129 42.3045 237.128 42.3046ZM236.995 41.5296C237.001 41.5216 237.005 41.5176 237.005 41.5175C237.005 41.5175 237.003 41.5214 236.995 41.5296Z" fill="#872BFF" stroke="#645873" stroke-width="1.85876"/>
</svg>
