<svg width="223" height="297" viewBox="0 0 223 297" fill="none" xmlns="http://www.w3.org/2000/svg">
<path d="M130.507 76.4387C129.777 74.8335 129.031 73.2187 128.26 71.6104C128.052 71.1614 128.226 70.6159 128.675 70.4078C129.124 70.1997 129.67 70.374 129.878 70.8231C130.665 72.4409 131.427 74.0652 132.147 75.6863C132.356 76.1354 132.156 76.6873 131.691 76.8858C131.414 77.0235 131.092 76.9826 130.852 76.8396C130.693 76.7443 130.578 76.6107 130.491 76.4291L130.507 76.4387ZM127.513 66.011C126.706 64.4251 125.884 62.8296 125.036 61.2406C124.802 60.798 124.257 60.6237 123.805 60.8733C123.362 61.1068 123.204 61.6618 123.437 62.1044C124.269 63.6839 125.101 65.2634 125.892 66.8398C125.972 66.9959 126.087 67.1295 126.23 67.2153C126.486 67.3678 126.817 67.3927 127.104 67.2391C127.546 67.0055 127.737 66.4696 127.503 66.027L127.513 66.011ZM142.205 106.875C142.413 106.999 142.668 107.043 142.932 106.963C143.41 106.815 143.69 106.311 143.542 105.833C143.019 104.135 142.48 102.427 141.926 100.71C141.778 100.232 141.255 99.9847 140.777 100.132C140.299 100.28 140.051 100.803 140.199 101.281C140.763 102.982 141.286 104.68 141.793 106.369C141.851 106.598 142.004 106.776 142.196 106.891L142.205 106.875ZM52.2577 243.937C51.4736 242.386 50.6927 240.794 49.9149 239.16C49.7068 238.711 49.1708 238.52 48.7058 238.719C48.2568 238.927 48.0665 239.463 48.2651 239.928C49.0494 241.587 49.8367 243.205 50.6208 244.756C50.7008 244.912 50.8253 245.03 50.9689 245.116C51.2243 245.268 51.5558 245.293 51.8424 245.139C52.2851 244.906 52.4593 244.36 52.2417 243.927L52.2577 243.937ZM122.445 56.5533C121.578 54.9962 120.685 53.4455 119.767 51.9012C119.508 51.465 118.96 51.3322 118.533 51.5754C118.097 51.8344 117.964 52.3829 118.207 52.8096C119.109 54.3444 120.001 55.895 120.862 57.4267C120.952 57.5668 121.06 57.6749 121.188 57.7512C121.459 57.9132 121.8 57.9221 122.087 57.7685C122.513 57.5254 122.672 56.9705 122.429 56.5438L122.445 56.5533ZM138.858 96.7124C139.081 96.8458 139.362 96.8835 139.62 96.7778C140.091 96.6048 140.329 96.0974 140.172 95.6355C139.573 93.9568 138.973 92.278 138.332 90.5961C138.15 90.1406 137.626 89.893 137.171 90.0756C136.699 90.2486 136.468 90.7815 136.65 91.237C137.275 92.9093 137.884 94.5721 138.484 96.2509C138.551 96.4643 138.698 96.617 138.873 96.7219L138.858 96.7124ZM45.6878 229.382C45.5052 228.926 44.9724 228.694 44.5169 228.877C44.0614 229.06 43.8298 229.592 44.0124 230.048C44.6851 231.749 45.3865 233.402 46.075 235.004C46.1615 235.186 46.2924 235.329 46.436 235.415C46.6754 235.558 46.9815 235.589 47.2491 235.467C47.7141 235.269 47.9202 234.742 47.7217 234.277C47.0332 232.675 46.3478 231.032 45.6814 229.356L45.6878 229.382ZM134.69 86.2552C134.767 86.4526 134.898 86.5958 135.057 86.6911C135.297 86.8341 135.587 86.8559 135.861 86.7597C136.316 86.5771 136.548 86.0443 136.365 85.5888C135.705 83.9388 135.004 82.2858 134.303 80.6327C134.12 80.1772 133.578 79.9615 133.113 80.1601C132.648 80.3586 132.441 80.885 132.64 81.35C133.351 82.9871 134.036 84.6307 134.68 86.2711L134.69 86.2552ZM41.9609 219.383C41.7878 218.911 41.29 218.657 40.8026 218.821C40.3312 218.994 40.0771 219.491 40.2406 219.979C40.8369 221.699 41.4523 223.387 42.0548 225.025C42.1317 225.222 42.2691 225.391 42.4287 225.486C42.6521 225.62 42.9327 225.657 43.2066 225.561C43.6781 225.388 43.9097 224.855 43.7271 224.4C43.1246 222.762 42.5157 221.1 41.9194 219.379L41.9609 219.383ZM144.032 227.199C143.503 228.919 142.952 230.603 142.378 232.252C142.239 232.667 142.405 233.113 142.772 233.332C142.82 233.361 142.884 233.399 142.932 233.427C143.395 233.595 143.914 233.343 144.082 232.88C144.665 231.215 145.235 229.499 145.774 227.763C145.926 227.291 145.664 226.788 145.176 226.627C144.703 226.475 144.191 226.753 144.039 227.225L144.032 227.199ZM140.52 237.248C139.87 238.916 139.172 240.556 138.477 242.155C138.286 242.582 138.45 243.07 138.833 243.298C138.865 243.317 138.897 243.336 138.929 243.355C139.388 243.565 139.92 243.363 140.113 242.894C140.843 241.273 141.526 239.624 142.195 237.924C142.379 237.47 142.145 236.919 141.683 236.751C141.214 236.558 140.704 236.795 140.51 237.264L140.52 237.248ZM116.988 47.2749C116.051 45.7625 115.098 44.2407 114.12 42.7252C113.851 42.305 113.293 42.1881 112.873 42.4567C112.453 42.7253 112.336 43.2834 112.604 43.7037C113.567 45.2096 114.529 46.7155 115.45 48.2183C115.524 48.3489 115.642 48.4411 115.754 48.5078C116.025 48.6698 116.392 48.6723 116.688 48.5028C117.108 48.2342 117.241 47.6856 116.982 47.2494L116.988 47.2749ZM146.836 216.923C146.422 218.668 145.976 220.393 145.524 222.093C145.419 222.485 145.605 222.899 145.94 223.099C146.004 223.138 146.084 223.185 146.167 223.191C146.648 223.328 147.145 223.04 147.281 222.558C147.743 220.842 148.189 219.117 148.597 217.347C148.717 216.856 148.42 216.375 147.929 216.255C147.437 216.134 146.957 216.432 146.836 216.923ZM136.216 246.953C135.413 248.552 134.578 250.132 133.739 251.644C133.491 252.059 133.642 252.604 134.073 252.861L134.089 252.871C134.52 253.128 135.074 252.961 135.316 252.521C136.173 250.976 137.018 249.381 137.841 247.75C138.066 247.3 137.874 246.753 137.44 246.537C136.99 246.311 136.451 246.488 136.226 246.937L136.216 246.953ZM147.968 211.731C147.889 212.117 148.068 212.506 148.387 212.696C148.467 212.744 148.563 212.801 148.671 212.801C149.156 212.896 149.646 212.582 149.741 212.097C150.104 210.366 150.429 208.59 150.738 206.804C150.816 206.31 150.493 205.835 149.999 205.756C149.505 205.678 149.031 206.001 148.952 206.495C148.652 208.265 148.305 210.006 147.968 211.731ZM151.777 169.362C151.777 169.687 151.956 169.967 152.212 170.119C152.355 170.205 152.518 170.259 152.693 170.255C153.194 170.251 153.591 169.839 153.587 169.339C153.561 167.57 153.513 165.766 153.44 163.968C153.419 163.458 152.998 163.076 152.504 163.106C151.994 163.126 151.612 163.547 151.642 164.041C151.715 165.839 151.767 167.602 151.793 169.371L151.777 169.362ZM151.021 190.67C150.987 191.018 151.179 191.349 151.466 191.52C151.578 191.587 151.709 191.622 151.849 191.641C152.346 191.678 152.782 191.31 152.836 190.823C152.985 189.05 153.119 187.268 153.246 185.46C153.283 184.963 152.89 184.533 152.393 184.496C151.895 184.459 151.466 184.851 151.429 185.349C151.311 187.141 151.187 188.907 151.031 190.654L151.021 190.67ZM78.8049 276.228C77.3528 275.36 75.9195 274.353 74.502 273.246C74.1157 272.95 73.5357 273.015 73.24 273.402C72.9347 273.804 73.0091 274.368 73.3954 274.664C74.8768 275.808 76.3739 276.854 77.8898 277.76C78.3207 278.017 78.8815 277.876 79.1293 277.461C79.3867 277.03 79.2613 276.479 78.8304 276.221L78.8049 276.228ZM57.4464 253.228C56.5478 251.761 55.6459 250.226 54.7725 248.643C54.5294 248.217 53.9744 248.058 53.5477 248.301C53.121 248.545 52.9627 249.1 53.2058 249.526C54.1016 251.144 55.0195 252.688 55.9246 254.181C55.9981 254.312 56.1163 254.404 56.228 254.471C56.4993 254.633 56.8658 254.635 57.162 254.466C57.5822 254.197 57.715 253.649 57.456 253.213L57.4464 253.228ZM98.6611 280.9C96.9369 281.104 95.2156 281.159 93.4813 281.054C92.9839 281.017 92.5544 281.41 92.5171 281.907C92.4987 282.264 92.6841 282.57 92.9554 282.732C93.0831 282.808 93.2138 282.843 93.3541 282.862C95.1714 282.973 97.0425 282.921 98.8591 282.707C99.3467 282.652 99.706 282.196 99.6509 281.708C99.5798 281.211 99.1392 280.861 98.6516 280.916L98.6611 280.9ZM150.56 202.281C151.054 202.359 151.522 202.011 151.585 201.507C151.833 199.75 152.075 197.968 152.276 196.182C152.329 195.695 151.971 195.243 151.483 195.189C150.979 195.127 150.543 195.494 150.49 195.982C150.289 197.767 150.067 199.518 149.802 201.265C149.749 201.645 149.931 201.992 150.234 202.173C150.33 202.23 150.451 202.281 150.576 202.29L150.56 202.281ZM153.481 180.101C153.547 178.322 153.582 176.524 153.601 174.717C153.613 174.226 153.21 173.812 152.71 173.816C152.209 173.82 151.805 174.207 151.809 174.707C151.8 176.499 151.759 178.271 151.676 180.041C151.668 180.382 151.837 180.678 152.124 180.85C152.252 180.926 152.399 180.97 152.548 180.973C153.055 180.994 153.469 180.592 153.481 180.101ZM118.625 272.343C118.296 271.952 117.741 271.902 117.35 272.231C115.972 273.378 114.568 274.423 113.139 275.367C112.718 275.635 112.601 276.193 112.886 276.623C112.969 276.738 113.062 276.836 113.173 276.903C113.461 277.075 113.827 277.077 114.133 276.892C115.623 275.92 117.081 274.82 118.503 273.635C118.885 273.321 118.945 272.751 118.616 272.359L118.625 272.343ZM132.275 255.944C131.822 255.652 131.302 255.796 131.029 256.218C130.056 257.737 129.071 259.205 128.051 260.588C127.761 260.999 127.845 261.547 128.248 261.853C128.264 261.862 128.295 261.881 128.311 261.891C128.71 262.129 129.227 262.026 129.497 261.646C130.536 260.232 131.55 258.716 132.532 257.181C132.79 256.75 132.68 256.208 132.259 255.935L132.275 255.944ZM88.3889 280.264C86.7432 279.865 85.0845 279.307 83.4605 278.619C82.9916 278.425 82.4756 278.637 82.2661 279.096C82.0852 279.508 82.2488 279.995 82.6317 280.224C82.6636 280.243 82.6955 280.262 82.7434 280.291C84.4566 281.011 86.2207 281.61 87.9557 282.04C88.4468 282.16 88.9276 281.863 89.0478 281.372C89.1679 280.881 88.8705 280.4 88.3793 280.28L88.3889 280.264ZM126.079 264.649C125.702 264.338 125.116 264.377 124.804 264.754C123.659 266.127 122.444 267.436 121.245 268.647C120.885 268.995 120.893 269.562 121.241 269.922C121.305 269.96 121.359 270.014 121.423 270.052C121.774 270.262 122.236 270.213 122.525 269.91C123.769 268.661 124.988 267.31 126.177 265.899C126.498 265.506 126.449 264.936 126.073 264.624L126.079 264.649ZM109.823 278.344C109.615 277.895 109.063 277.695 108.62 277.929C107.037 278.694 105.397 279.338 103.785 279.825C103.307 279.973 103.027 280.477 103.175 280.955C103.242 281.169 103.386 281.363 103.578 281.477C103.785 281.601 104.04 281.645 104.305 281.565C106.019 281.052 107.745 280.372 109.414 279.572C109.863 279.364 110.063 278.812 109.829 278.37L109.823 278.344ZM148.875 126.664C148.514 124.911 148.128 123.165 147.727 121.41C147.604 120.925 147.135 120.623 146.635 120.736C146.151 120.858 145.849 121.327 145.961 121.828C146.373 123.567 146.743 125.304 147.097 127.031C147.161 127.286 147.311 127.505 147.519 127.629C147.71 127.744 147.94 127.794 148.169 127.736C148.66 127.64 148.971 127.155 148.875 126.664ZM63.5043 261.935C62.4561 260.573 61.4045 259.144 60.3815 257.666C60.1034 257.262 59.5358 257.161 59.1155 257.43C58.7112 257.708 58.6103 258.276 58.8885 258.68C59.9338 260.192 61.0078 261.656 62.0784 263.054C62.1551 263.143 62.2413 263.216 62.337 263.273C62.6402 263.454 63.0578 263.444 63.3506 263.207C63.7485 262.904 63.808 262.333 63.5043 261.935ZM145.117 117.188C145.308 117.302 145.564 117.346 145.793 117.288C146.277 117.166 146.573 116.672 146.451 116.187C146.014 114.454 145.551 112.727 145.073 110.991C144.951 110.507 144.447 110.227 143.953 110.365C143.469 110.487 143.189 110.991 143.327 111.485C143.815 113.206 144.261 114.923 144.708 116.64C144.766 116.87 144.925 117.073 145.117 117.188ZM152.794 153.233C152.748 152.729 152.317 152.363 151.813 152.409C151.31 152.455 150.944 152.886 150.99 153.389C151.14 155.168 151.29 156.946 151.392 158.696C151.402 159.005 151.591 159.269 151.83 159.412C151.99 159.508 152.162 159.546 152.363 159.536C152.857 159.506 153.248 159.069 153.203 158.565C153.094 156.79 152.953 154.995 152.787 153.207L152.794 153.233ZM150.895 148.764C151.054 148.859 151.258 148.916 151.453 148.881C151.94 148.826 152.316 148.379 152.244 147.881C152.043 146.116 151.826 144.341 151.577 142.546C151.506 142.049 151.056 141.716 150.569 141.771C150.071 141.842 149.737 142.292 149.793 142.78C150.035 144.548 150.252 146.323 150.447 148.064C150.483 148.366 150.649 148.596 150.888 148.738L150.895 148.764ZM70.5584 269.808C69.3288 268.64 68.099 267.364 66.8914 266.015C66.5527 265.64 65.9884 265.606 65.6129 265.944C65.2374 266.283 65.2035 266.847 65.5421 267.223C66.7721 268.607 68.0498 269.912 69.3177 271.124C69.3816 271.162 69.4199 271.206 69.4837 271.244C69.8348 271.454 70.2969 271.405 70.5959 271.086C70.9395 270.728 70.9161 270.151 70.5584 269.808ZM149.905 131.935C149.809 131.444 149.333 131.116 148.842 131.213C148.352 131.31 148.034 131.769 148.121 132.276C148.44 134.025 148.749 135.791 149.027 137.537C149.072 137.824 149.232 138.028 149.455 138.161C149.631 138.266 149.844 138.307 150.055 138.281C150.552 138.21 150.879 137.734 150.808 137.237C150.54 135.475 150.231 133.709 149.905 131.935Z" fill="#F411CF"/>
<path d="M92.4417 12.8666C89.5494 9.08207 85.3303 4.98132 84.509 5.59498C83.6942 6.23413 86.5701 11.3512 89.4624 15.1358C89.7277 15.4891 89.9865 15.8169 90.2454 16.1448C90.1223 16.7857 89.87 18.1506 89.5578 19.8694C89.5418 19.8599 89.5609 19.828 89.5385 19.793L88.7555 18.784C88.6565 18.6598 88.4652 18.6538 88.3156 18.7593L87.3257 19.5104C87.176 19.6159 87.1445 19.8136 87.2436 19.9377L88.0266 20.9467C88.0266 20.9467 88.1383 21.0134 88.2021 21.0515L89.097 22.2357C88.829 23.6994 88.526 25.2938 88.2422 26.8564L87.4752 25.8569C87.3761 25.7328 87.1848 25.7268 87.0352 25.8323L86.0453 26.5834C85.8957 26.6888 85.8642 26.8866 85.9633 27.0107L86.7462 28.0197C86.7462 28.0197 86.858 28.0864 86.9218 28.1245L87.7943 29.2736C87.069 33.2788 86.4762 36.6271 86.5019 36.7291C86.5726 37.0095 87.7805 38.4671 87.7805 38.4671C88.0457 38.8204 88.3012 39.0813 88.3458 39.043C88.3649 39.0111 88.1122 38.6003 87.8629 38.2565L90.7112 30.951C90.9412 31.2183 91.1711 31.3773 91.2252 31.323C91.3143 31.2463 91.1638 30.9182 90.8985 30.5649L90.8666 30.5458L91.4344 29.0879C91.658 29.3298 91.8623 29.4951 91.9419 29.4344C92.031 29.3577 91.8805 29.0297 91.6153 28.6764L92.1227 27.3556L92.7141 26.583C92.9665 26.8854 93.2252 27.1048 93.3143 27.0281C93.4034 26.9515 93.2529 26.6234 92.9876 26.2701L92.9717 26.2606L94.148 24.6899C94.4005 24.9922 94.6527 25.1862 94.7323 25.1255C94.8214 25.0488 94.6709 24.7207 94.4056 24.3674L94.3897 24.3579L95.4643 22.9213C97.4425 25.4453 98.2446 26.4224 99.6795 28.2971C101.13 30.1814 102.661 31.8966 104.031 33.2997C103.643 35.4714 102.826 39.8115 102.826 39.8115L103.558 40.9417L107.298 36.3121C107.636 36.5792 107.93 36.7763 108.154 36.9097C108.815 37.6512 109.249 38.0839 109.319 38.0391C109.399 37.9784 109.105 37.4562 108.58 36.6666C108.506 36.4277 108.366 36.0837 108.148 35.6506L113.632 33.2108L112.732 32.218C112.732 32.218 108.048 31.8669 105.928 31.683C104.965 30.0687 103.795 28.2221 102.538 26.3024C100.739 23.9501 99.975 22.9092 98.3545 20.7288L100.004 20.0689C100.27 20.4222 100.56 20.6607 100.649 20.584C100.729 20.5233 100.601 20.2303 100.368 19.896L102.189 19.1656L102.205 19.1752C102.471 19.5285 102.761 19.767 102.85 19.6903C102.93 19.6296 102.811 19.3206 102.569 19.0023L103.48 18.6371L104.891 18.4845C105.157 18.8379 105.447 19.0764 105.536 18.9997C105.616 18.939 105.517 18.7064 105.338 18.4263L106.883 18.2671L106.915 18.2861C107.171 18.6554 107.471 18.8779 107.551 18.8172C107.63 18.7565 107.525 18.4985 107.329 18.2088L115.128 17.3679C115.387 17.6957 115.726 18.0712 115.761 18.0488C115.805 18.0104 115.62 17.7048 115.355 17.3515C115.355 17.3515 114.287 15.8043 114.031 15.6518C113.936 15.5946 110.54 15.2985 106.497 14.9621L105.625 13.813C105.625 13.813 105.628 13.6632 105.59 13.6187L104.807 12.6097C104.707 12.4855 104.516 12.4795 104.367 12.585L103.377 13.3361C103.227 13.4416 103.196 13.6393 103.295 13.7634L104.062 14.7629C102.471 14.6353 100.864 14.4982 99.3717 14.3863L98.4768 13.2023C98.4768 13.2023 98.4797 13.0524 98.4414 13.0079L97.6584 11.9989C97.5593 11.8748 97.368 11.8688 97.2184 11.9742L96.2285 12.7253C96.0789 12.8308 96.0474 13.0285 96.1465 13.1527L96.9294 14.1616C96.9294 14.1616 96.9773 14.1902 96.9933 14.1998C95.278 14.0629 93.9102 13.9604 93.2471 13.9106C92.9882 13.5828 92.7389 13.239 92.4736 12.8857L92.4417 12.8666Z" fill="#F411CF"/>
</svg>
